<svg width="220" height="170" viewBox="0 0 220 170" fill="none" xmlns="http://www.w3.org/2000/svg">
<g id="Group 3087">
<g id="Group">
<g id="Group_2">
<path id="&#232;&#131;&#140;&#230;&#153;&#175;" d="M220 125.893L219.626 129.072L218.59 132.168L216.86 135.226L214.393 138.253L211.467 141.015L207.932 143.724L203.724 146.38L198.78 148.99L193.696 151.274L188.057 153.444L181.831 155.515L174.964 157.458L165.726 159.62L155.677 161.479L144.773 163.012L133.762 164.089L122.185 164.765L110 165L97.8146 164.765L86.2379 164.089L75.2272 163.012L64.3233 161.479L54.2738 159.62L45.0359 157.458L38.1689 155.515L31.9427 153.444L26.3039 151.274L21.2204 148.99L16.2757 146.38L12.068 143.724L8.53301 141.015L5.6068 138.253L3.13981 135.226L1.40971 132.168L0.373786 129.072L0 125.893L0.373786 122.706L1.40971 119.61L3.13981 116.56L5.6068 113.525L8.53301 110.763L12.068 108.054L16.2757 105.398L21.2204 102.788L26.3039 100.512L31.9427 98.3339L38.1689 96.27L45.0359 94.3199L54.2738 92.1574L64.3233 90.2984L75.2272 88.7733L86.2379 87.6882L97.8146 87.0205L110 86.7777L122.185 87.0205L133.762 87.6882L144.773 88.7733L155.677 90.2984L165.726 92.1574L174.964 94.3199L181.831 96.27L188.057 98.3339L193.696 100.512L198.78 102.788L203.724 105.398L207.932 108.054L211.467 110.763L214.393 113.525L216.86 116.56L218.59 119.61L219.626 122.706L220 125.893Z" fill="url(#paint0_linear_933_1621)"/>
<g id="Group 3086">
<path id="&#232;&#183;&#175;&#229;&#190;&#132;" d="M91.6995 59.3452L92.7748 59.1547" stroke="#E8E8E8" stroke-width="1.36114" stroke-linecap="round"/>
<path id="&#232;&#183;&#175;&#229;&#190;&#132;_2" d="M94.7417 58.0736L94.0827 58.2436L94.4228 59.5616L95.0818 59.3916L94.7417 58.0736ZM102.983 56.6501L103.153 57.309L103.209 57.2922L102.983 56.6501ZM107.788 54.9622L108.014 55.6043L108.067 55.5831L107.788 54.9622ZM112.729 52.7436L113.008 53.3644L113.065 53.3356L112.729 52.7436ZM115.873 50.9605L116.209 51.5525L116.277 51.5082L115.873 50.9605ZM118.623 48.9324L119.027 49.4801L119.09 49.4277L118.623 48.9324ZM120.991 46.7001L121.458 47.1954L121.536 47.1085L120.991 46.7001ZM122.91 44.1412L123.455 44.5495L123.537 44.4074L122.91 44.1412ZM124.108 41.3236L124.734 41.5899L124.78 41.4341L124.108 41.3236ZM124.625 38.1794L125.297 38.2899L125.301 38.1014L124.625 38.1794ZM124.462 36.7638L125.138 36.6858L125.074 36.4669L124.462 36.7638ZM124.027 35.8655L124.639 35.5685L124.461 35.3417L124.027 35.8655ZM123.387 35.3346L123.821 34.8109L123.563 34.6773L123.387 35.3346ZM122.066 34.9807L122.243 34.3234L122.005 34.3029L122.066 34.9807ZM120.419 35.1304L120.358 34.4527L120.207 34.4838L120.419 35.1304ZM118.759 35.6749L118.547 35.0282L118.446 35.0706L118.759 35.6749ZM117.262 36.4508L116.949 35.8465L116.852 35.907L117.262 36.4508ZM115.996 37.4035L115.587 36.8598L115.462 36.9818L115.996 37.4035ZM115.383 38.1794L114.849 37.7577L114.726 38.0035L115.383 38.1794ZM114.866 40.1122L114.209 39.9363L114.187 40.1566L114.866 40.1122ZM115.002 42.1948L114.323 42.2391L114.377 42.4644L115.002 42.1948ZM115.86 44.182L115.235 44.4517L115.358 44.6414L115.86 44.182ZM117.616 46.1012L117.113 46.5606L117.245 46.6722L117.616 46.1012ZM119.126 47.0812L118.756 47.6522L118.865 47.7096L119.126 47.0812ZM121.155 47.9252L120.893 48.5535L120.997 48.5871L121.155 47.9252ZM123.836 48.5649L123.678 49.2269L123.766 49.2418L123.836 48.5649ZM126.585 48.8507L126.515 49.5276L126.599 49.5312L126.585 48.8507ZM130.029 48.7827L130.043 49.4631L130.106 49.4589L130.029 48.7827ZM134.33 48.2927L134.407 48.9689L134.471 48.9585L134.33 48.2927ZM141.422 46.7954L141.562 47.4613L141.62 47.4465L141.422 46.7954ZM147.329 44.9987L147.527 45.6498L147.589 45.6279L147.329 44.9987ZM152.216 42.9842L152.475 43.6134L152.532 43.5869L152.216 42.9842ZM156.939 40.5069L157.255 41.1096L157.303 41.0822L156.939 40.5069ZM160.641 38.1658L161.005 38.741L161.057 38.7046L160.641 38.1658ZM163.5 35.9607L163.915 36.4996L163.968 36.4546L163.5 35.9607ZM167.188 32.4626L167.657 32.9564L167.714 32.8946L167.188 32.4626ZM169.592 30.6079C169.831 30.3174 169.789 29.8886 169.499 29.65C169.208 29.4114 168.779 29.4535 168.541 29.7439L169.592 30.6079ZM95.0818 59.3916L96.0907 59.1313L95.7507 57.8133L94.7417 58.0736L95.0818 59.3916ZM98.1086 58.6106L100.127 58.09L99.7865 56.772L97.7686 57.2927L98.1086 58.6106ZM102.144 57.5694L103.153 57.309L102.813 55.9911L101.804 56.2514L102.144 57.5694ZM103.209 57.2922L104.41 56.8702L103.959 55.586L102.758 56.0079L103.209 57.2922ZM106.812 56.0263L108.014 55.6043L107.563 54.3201L106.361 54.7421L106.812 56.0263ZM108.067 55.5831L109.302 55.0284L108.745 53.7867L107.509 54.3414L108.067 55.5831ZM111.773 53.9191L113.008 53.3644L112.45 52.1227L111.215 52.6774L111.773 53.9191ZM113.065 53.3356L113.851 52.8898L113.179 51.7058L112.393 52.1516L113.065 53.3356ZM115.423 51.9983L116.209 51.5525L115.538 50.3685L114.752 50.8143L115.423 51.9983ZM116.277 51.5082L116.965 51.0012L116.157 49.9058L115.469 50.4128L116.277 51.5082ZM118.339 49.9871L119.027 49.4801L118.219 48.3847L117.531 48.8917L118.339 49.9871ZM119.09 49.4277L119.682 48.8696L118.748 47.8791L118.156 48.4371L119.09 49.4277ZM120.866 47.7535L121.458 47.1954L120.524 46.2049L119.932 46.7629L120.866 47.7535ZM121.536 47.1085L122.015 46.4687L120.927 45.6521L120.447 46.2918L121.536 47.1085ZM122.975 45.1893L123.455 44.5495L122.366 43.7328L121.886 44.3726L122.975 45.1893ZM123.537 44.4074L123.836 43.7031L122.584 43.1705L122.284 43.8749L123.537 44.4074ZM124.435 42.2943L124.734 41.5899L123.482 41.0574L123.182 41.7618L124.435 42.2943ZM124.78 41.4341L124.909 40.648L123.566 40.4271L123.437 41.2132L124.78 41.4341ZM125.168 39.0759L125.297 38.2899L123.954 38.0689L123.825 38.855L125.168 39.0759ZM125.301 38.1014L125.261 37.7475L123.908 37.9035L123.949 38.2574L125.301 38.1014ZM125.179 37.0397L125.138 36.6858L123.786 36.8418L123.827 37.1957L125.179 37.0397ZM125.074 36.4669L124.966 36.2423L123.741 36.8361L123.85 37.0607L125.074 36.4669ZM124.748 35.7931L124.639 35.5685L123.414 36.1624L123.523 36.387L124.748 35.7931ZM124.461 35.3417L124.301 35.209L123.432 36.2565L123.592 36.3892L124.461 35.3417ZM123.981 34.9436L123.821 34.8109L122.952 35.8584L123.112 35.9911L123.981 34.9436ZM123.563 34.6773L123.233 34.5888L122.88 35.9035L123.211 35.992L123.563 34.6773ZM122.573 34.4118L122.243 34.3234L121.89 35.6381L122.22 35.7266L122.573 34.4118ZM122.005 34.3029L121.593 34.3404L121.716 35.6959L122.128 35.6585L122.005 34.3029ZM120.77 34.4152L120.358 34.4527L120.481 35.8082L120.893 35.7708L120.77 34.4152ZM120.207 34.4838L119.792 34.6199L120.216 35.9133L120.632 35.7771L120.207 34.4838ZM118.962 34.8921L118.547 35.0282L118.971 36.3216L119.386 36.1855L118.962 34.8921ZM118.446 35.0706L118.071 35.2646L118.698 36.4731L119.072 36.2792L118.446 35.0706ZM117.323 35.6525L116.949 35.8465L117.575 37.055L117.949 36.8611L117.323 35.6525ZM116.852 35.907L116.536 36.1452L117.354 37.2327L117.671 36.9945L116.852 35.907ZM115.903 36.6216L115.587 36.8598L116.405 37.9473L116.722 37.7091L115.903 36.6216ZM115.462 36.9818L115.308 37.1758L116.377 38.0192L116.53 37.8253L115.462 36.9818ZM115.002 37.5637L114.849 37.7577L115.917 38.6011L116.071 38.4071L115.002 37.5637ZM114.726 38.0035L114.597 38.4867L115.911 38.8385L116.041 38.3553L114.726 38.0035ZM114.338 39.4531L114.209 39.9363L115.523 40.2881L115.653 39.8049L114.338 39.4531ZM114.187 40.1566L114.221 40.6772L115.579 40.5885L115.545 40.0678L114.187 40.1566ZM114.289 41.7185L114.323 42.2391L115.681 42.1504L115.647 41.6297L114.289 41.7185ZM114.377 42.4644L114.592 42.9612L115.841 42.4219L115.627 41.9251L114.377 42.4644ZM115.02 43.9548L115.235 44.4517L116.485 43.9124L116.27 43.4156L115.02 43.9548ZM115.358 44.6414L115.797 45.1212L116.801 44.2024L116.362 43.7226L115.358 44.6414ZM116.674 46.0808L117.113 46.5606L118.118 45.6418L117.679 45.162L116.674 46.0808ZM117.245 46.6722L117.623 46.9172L118.364 45.7753L117.986 45.5303L117.245 46.6722ZM118.378 47.4072L118.756 47.6522L119.497 46.5103L119.119 46.2653L118.378 47.4072ZM118.865 47.7096L119.372 47.9206L119.895 46.6639L119.388 46.4529L118.865 47.7096ZM120.386 48.3425L120.893 48.5535L121.416 47.2968L120.909 47.0858L120.386 48.3425ZM120.997 48.5871L121.667 48.7471L121.983 47.4231L121.312 47.2632L120.997 48.5871ZM123.008 49.0669L123.678 49.2269L123.994 47.9029L123.324 47.743L123.008 49.0669ZM123.766 49.2418L124.453 49.3133L124.594 47.9594L123.906 47.888L123.766 49.2418ZM125.828 49.4562L126.515 49.5276L126.656 48.1738L125.968 48.1023L125.828 49.4562ZM126.599 49.5312L127.46 49.5141L127.433 48.1533L126.572 48.1703L126.599 49.5312ZM129.182 49.4801L130.043 49.4631L130.016 48.1022L129.155 48.1192L129.182 49.4801ZM130.106 49.4589L131.181 49.3364L131.027 47.984L129.952 48.1065L130.106 49.4589ZM133.332 49.0914L134.407 48.9689L134.253 47.6165L133.178 47.739L133.332 49.0914ZM134.471 48.9585L136.244 48.5842L135.963 47.2525L134.19 47.6268L134.471 48.9585ZM139.79 47.8356L141.562 47.4613L141.281 46.1295L139.508 46.5038L139.79 47.8356ZM141.62 47.4465L143.097 46.9974L142.701 45.6951L141.224 46.1443L141.62 47.4465ZM146.05 46.099L147.527 45.6498L147.131 44.3476L145.654 44.7968L146.05 46.099ZM147.589 45.6279L148.81 45.1243L148.291 43.8659L147.07 44.3695L147.589 45.6279ZM151.253 44.117L152.475 43.6134L151.956 42.355L150.735 42.8586L151.253 44.117ZM152.532 43.5869L153.713 42.9676L153.08 41.7622L151.9 42.3815L152.532 43.5869ZM156.074 41.729L157.255 41.1096L156.623 39.9042L155.442 40.5236L156.074 41.729ZM157.303 41.0822L158.228 40.4969L157.501 39.3464L156.575 39.9317L157.303 41.0822ZM160.079 39.3263L161.005 38.741L160.277 37.5906L159.352 38.1759L160.079 39.3263ZM161.057 38.7046L161.771 38.1534L160.94 37.0757L160.225 37.6269L161.057 38.7046ZM163.201 37.0509L163.915 36.4996L163.084 35.4219L162.369 35.9731L163.201 37.0509ZM163.968 36.4546L164.89 35.58L163.953 34.5924L163.031 35.4669L163.968 36.4546ZM166.734 33.831L167.657 32.9564L166.72 31.9688L165.798 32.8433L166.734 33.831ZM167.714 32.8946L168.184 32.3229L167.132 31.459L166.662 32.0306L167.714 32.8946ZM169.123 31.1796L169.592 30.6079L168.541 29.7439L168.071 30.3156L169.123 31.1796Z" fill="#373737"/>
<path id="&#232;&#183;&#175;&#229;&#190;&#132;_3" d="M170.686 26.4601L179.316 32.1361L192.397 6.11108L170.686 26.4601Z" fill="url(#paint1_linear_933_1621)"/>
<path id="&#232;&#183;&#175;&#229;&#190;&#132;_4" d="M170.7 26.4873L171.966 27.3312L167.978 31.5371L170.7 26.4873Z" fill="#1F1F1F"/>
<path id="&#232;&#183;&#175;&#229;&#190;&#132;_5" opacity="0.5" d="M192.396 6.11108L167.556 25.5754L168.25 31.1152L171.054 26.1879L192.396 6.11108Z" fill="url(#paint2_linear_933_1621)"/>
<path id="&#232;&#183;&#175;&#229;&#190;&#132;_6" d="M167.556 25.5754L159.484 21.0156L192.396 6.11108L167.556 25.5754Z" fill="url(#paint3_linear_933_1621)"/>
<g id="Group_3">
<path id="&#230;&#164;&#173;&#229;&#156;&#134;&#229;&#189;&#162;" d="M21.2061 107.325L20.9203 109.367L20.1853 111.109L19.0011 112.634L17.463 113.818L15.7071 114.553L13.6654 114.839L11.6101 114.553L9.85424 113.818L8.32977 112.634L7.13197 111.109L6.39695 109.367L6.11111 107.325L6.39695 105.284L7.13197 103.528L8.32977 102.003L9.85424 100.819L11.6101 100.098L13.6654 99.7983L15.7071 100.098L17.463 100.819L19.0011 102.003L20.1853 103.528L20.9203 105.284L21.2061 107.325Z" fill="url(#paint4_radial_933_1621)" fill-opacity="0.66"/>
</g>
<g id="Group_4">
<path id="&#230;&#164;&#173;&#229;&#156;&#134;&#229;&#189;&#162;_2" d="M213.889 71.8815L213.44 74.1274L212.201 75.9377L210.391 77.1491L208.145 77.6119L205.885 77.1491L204.075 75.9377L202.85 74.1274L202.387 71.8815L202.85 69.6356L204.075 67.8389L205.885 66.6139L208.145 66.1511L210.391 66.6139L212.201 67.8389L213.44 69.6356L213.889 71.8815Z" fill="url(#paint5_radial_933_1621)" fill-opacity="0.66"/>
</g>
<g id="Group_5">
<path id="&#230;&#164;&#173;&#229;&#156;&#134;&#229;&#189;&#162;_3" d="M192.328 126.79L191.975 128.341L190.967 129.934L189.075 131.649L185.972 133.486L181.698 135.324L176.022 137.162L168.631 138.958L157.089 141L142.919 142.661L128.028 143.641L111.436 144.008L94.8574 143.641L79.9529 142.661L65.7835 141L54.241 138.958L46.8636 137.162L41.1741 135.324L36.9137 133.486L33.8103 131.649L31.9183 129.934L30.8975 128.341L30.5572 126.79L30.8975 125.238L31.9183 123.632L33.8103 121.93L36.9137 120.093L41.1741 118.255L46.8636 116.418L54.241 114.608L65.7835 112.579L79.9529 110.919L94.8574 109.939L111.436 109.571L128.028 109.939L142.919 110.919L157.089 112.579L168.631 114.608L176.022 116.418L181.698 118.255L185.972 120.093L189.075 121.93L190.967 123.632L191.975 125.238L192.328 126.79Z" fill="url(#paint6_radial_933_1621)" fill-opacity="0.26"/>
</g>
<path id="&#232;&#183;&#175;&#229;&#190;&#132;_7" d="M61.1828 61.5503V108.673L114.839 132.915V70.0302L61.1828 61.5503Z" fill="url(#paint7_linear_933_1621)"/>
<path id="&#232;&#183;&#175;&#229;&#190;&#132;_8" d="M165.596 61.5503L114.839 70.0302V132.915L165.596 110.306V61.5503Z" fill="url(#paint8_linear_933_1621)"/>
<path id="&#232;&#183;&#175;&#229;&#190;&#132;_9" d="M114.839 55.6564L61.1828 61.5501L114.839 70.03L165.596 61.5501L114.839 55.6564Z" fill="url(#paint9_linear_933_1621)"/>
<path id="&#232;&#183;&#175;&#229;&#190;&#132;_10" d="M61.1828 61.5503L55.5069 79.7079L105.08 95.1024L114.839 70.0302L61.1828 61.5503Z" fill="url(#paint10_linear_933_1621)"/>
<path id="&#232;&#183;&#175;&#229;&#190;&#132;_11" d="M114.839 70.0302L123.945 97.2393L172.551 78.3195L165.596 61.5503L114.839 70.0302Z" fill="url(#paint11_linear_933_1621)"/>
</g>
</g>
</g>
</g>
<defs>
<linearGradient id="paint0_linear_933_1621" x1="110.903" y1="86.9134" x2="110.903" y2="126.025" gradientUnits="userSpaceOnUse">
<stop stop-color="#A9A9A9" stop-opacity="0.15"/>
<stop offset="1" stop-color="#A9A9A9" stop-opacity="0"/>
</linearGradient>
<linearGradient id="paint1_linear_933_1621" x1="187.033" y1="4.39948" x2="173.555" y2="27.6388" gradientUnits="userSpaceOnUse">
<stop stop-color="#979596" stop-opacity="0.1"/>
<stop offset="1" stop-color="#626262" stop-opacity="0.27"/>
</linearGradient>
<linearGradient id="paint2_linear_933_1621" x1="167.556" y1="18.6096" x2="192.396" y2="18.6096" gradientUnits="userSpaceOnUse">
<stop stop-color="#2F2F2F"/>
<stop offset="1" stop-color="#787878" stop-opacity="0.7"/>
</linearGradient>
<linearGradient id="paint3_linear_933_1621" x1="159.484" y1="15.8432" x2="192.396" y2="15.8432" gradientUnits="userSpaceOnUse">
<stop stop-color="#807E7E" stop-opacity="0.1"/>
<stop offset="1" stop-color="#ACA9AB" stop-opacity="0.31"/>
</linearGradient>
<radialGradient id="paint4_radial_933_1621" cx="0" cy="0" r="1" gradientUnits="userSpaceOnUse" gradientTransform="translate(-375.289 330.494) rotate(90) scale(14.1885 14.0798)">
<stop stop-color="#212121"/>
<stop offset="1" stop-color="#393939"/>
</radialGradient>
<radialGradient id="paint5_radial_933_1621" cx="0" cy="0" r="1" gradientUnits="userSpaceOnUse" gradientTransform="translate(-88.2193 241.939) rotate(90) scale(10.8115 10.728)">
<stop stop-color="#212121"/>
<stop offset="1" stop-color="#393939"/>
</radialGradient>
<radialGradient id="paint6_radial_933_1621" cx="0" cy="0" r="1" gradientUnits="userSpaceOnUse" gradientTransform="translate(4.1714 25.7243) scale(79.1079 11.8909)">
<stop stop-color="#808184"/>
<stop offset="1" stop-color="white" stop-opacity="0"/>
</radialGradient>
<linearGradient id="paint7_linear_933_1621" x1="61.1828" y1="97.2361" x2="114.839" y2="97.2361" gradientUnits="userSpaceOnUse">
<stop stop-color="#2E2F32"/>
<stop offset="1" stop-color="#2F2F30"/>
</linearGradient>
<linearGradient id="paint8_linear_933_1621" x1="140.217" y1="132.915" x2="140.217" y2="61.5503" gradientUnits="userSpaceOnUse">
<stop stop-color="#2E2F32"/>
<stop offset="1" stop-color="#434343"/>
</linearGradient>
<linearGradient id="paint9_linear_933_1621" x1="87.2824" y1="62.3256" x2="113.973" y2="88.9236" gradientUnits="userSpaceOnUse">
<stop stop-color="#454646"/>
<stop offset="1" stop-color="#323336"/>
</linearGradient>
<linearGradient id="paint10_linear_933_1621" x1="55.5069" y1="78.3263" x2="114.839" y2="78.3263" gradientUnits="userSpaceOnUse">
<stop stop-color="#313235"/>
<stop offset="1" stop-color="#464647"/>
</linearGradient>
<linearGradient id="paint11_linear_933_1621" x1="114.839" y1="79.3948" x2="172.551" y2="79.3948" gradientUnits="userSpaceOnUse">
<stop stop-color="#4A4A4A"/>
<stop offset="1" stop-color="#2E2F32"/>
</linearGradient>
</defs>
</svg>
