<svg width="220" height="170" viewBox="0 0 220 170" fill="none" xmlns="http://www.w3.org/2000/svg">
<g id="Group 3087">
<g id="Group">
<g id="Group_2">
<path id="&#232;&#131;&#140;&#230;&#153;&#175;" d="M220 125.975L219.626 129.154L218.59 132.25L216.86 135.308L214.393 138.336L211.467 141.098L207.932 143.806L203.724 146.462L198.78 149.072L193.696 151.356L188.057 153.526L181.831 155.598L174.964 157.54L165.726 159.703L155.677 161.562L144.773 163.094L133.762 164.172L122.185 164.847L110 165.082L97.8146 164.847L86.2379 164.172L75.2272 163.094L64.3233 161.562L54.2738 159.703L45.0359 157.54L38.1689 155.598L31.9427 153.526L26.3039 151.356L21.2204 149.072L16.2757 146.462L12.068 143.806L8.53301 141.098L5.6068 138.336L3.13981 135.308L1.40971 132.25L0.373786 129.154L0 125.975L0.373786 122.788L1.40971 119.692L3.13981 116.642L5.6068 113.607L8.53301 110.845L12.068 108.136L16.2757 105.481L21.2204 102.87L26.3039 100.594L31.9427 98.4164L38.1689 96.3525L45.0359 94.4025L54.2738 92.24L64.3233 90.381L75.2272 88.8558L86.2379 87.7708L97.8146 87.1031L110 86.8602L122.185 87.1031L133.762 87.7708L144.773 88.8558L155.677 90.381L165.726 92.24L174.964 94.4025L181.831 96.3525L188.057 98.4164L193.696 100.594L198.78 102.87L203.724 105.481L207.932 108.136L211.467 110.845L214.393 113.607L216.86 116.642L218.59 119.692L219.626 122.788L220 125.975Z" fill="url(#paint0_linear_944_2418)"/>
<g id="Group 3089">
<g id="Group_3">
<path id="&#229;&#156;&#134;&#232;&#167;&#146;&#231;&#159;&#169;&#229;&#189;&#162;_8" fill-rule="evenodd" clip-rule="evenodd" d="M145.215 46.7601L170.585 53.5871C173.281 54.3124 174.9 57.0007 174.202 59.5949L156.139 126.727C155.441 129.318 152.691 130.833 149.995 130.108L124.625 123.283C121.932 122.558 120.313 119.867 121.011 117.276L139.074 50.1414C139.769 47.5497 142.519 46.0348 145.215 46.7601Z" fill="#2E2F32"/>
<path id="&#229;&#156;&#134;&#232;&#167;&#146;&#231;&#159;&#169;&#229;&#189;&#162;_7" fill-rule="evenodd" clip-rule="evenodd" d="M49.4086 40.0345H117.496C114.847 43.0396 104.092 54.1391 101.357 56.6764L112.956 82.3979C112.342 85.0787 106.852 106.166 104.381 115.687C103.698 116.375 102 117.461 100.852 118.209L49.4086 115.687C46.6238 115.687 44.3638 113.429 44.3638 110.644V45.0768C44.3662 42.2921 46.6238 40.0345 49.4086 40.0345Z" fill="#2E2F32"/>
<path id="&#229;&#189;&#162;&#231;&#138;&#182;_6" fill-rule="evenodd" clip-rule="evenodd" d="M152.297 126.781C152.297 126.781 170.83 61.3944 170.956 58.1888C170.595 55.3818 140.193 48.1017 140.193 48.1017L121.531 58.6938L126.071 83.4079L134.14 122.244L152.297 126.781Z" fill="url(#paint1_linear_944_2418)"/>
<path id="&#229;&#189;&#162;&#231;&#138;&#182;_5" fill-rule="evenodd" clip-rule="evenodd" d="M152.297 130.314L107.409 118.711C107.409 118.711 124.625 87.3882 126.576 83.9128C128.526 80.4349 132.266 80.9869 133.635 81.8954C135.007 82.8039 156.837 122.746 156.837 122.746C156.837 122.746 157.109 129.831 152.297 130.314Z" fill="url(#paint2_linear_944_2418)"/>
<path id="&#229;&#156;&#134;&#232;&#167;&#146;&#231;&#159;&#169;&#229;&#189;&#162;_7-2" fill-rule="evenodd" clip-rule="evenodd" d="M49.4086 43.0594H108.921C106.273 46.067 100.203 52.9015 97.3217 56.1739L109.426 82.9029C108.54 87.4179 101.938 112.154 100.349 118.711H49.4086C46.6238 118.711 44.3638 116.454 44.3638 113.669V48.1042C44.3638 46.765 44.896 45.4828 45.8416 44.5372C46.7872 43.5916 48.0719 43.0594 49.4086 43.0594Z" fill="url(#paint3_linear_944_2418)"/>
<path id="&#230;&#164;&#173;&#229;&#156;&#134;_7_&#230;&#139;&#183;&#232;&#180;&#157;" fill-rule="evenodd" clip-rule="evenodd" d="M148.767 64.2436C153.223 64.2436 156.837 67.8551 156.837 72.3133C156.837 76.7689 153.223 80.383 148.767 80.383C144.309 80.383 140.698 76.7689 140.698 72.3133C140.698 67.8551 144.309 64.2436 148.767 64.2436Z" fill="#2E2F32"/>
<path id="&#230;&#164;&#173;&#229;&#156;&#134;_7" fill-rule="evenodd" clip-rule="evenodd" d="M147.757 63.7386C152.215 63.7386 155.827 67.3502 155.827 71.8083C155.827 76.2639 152.215 79.878 147.757 79.878C143.302 79.878 139.688 76.2639 139.688 71.8083C139.688 67.3502 143.302 63.7386 147.757 63.7386Z" fill="#525252"/>
<path id="&#229;&#189;&#162;&#231;&#138;&#182;_7" fill-rule="evenodd" clip-rule="evenodd" d="M65.5479 0.188595L69.5828 14.3105L75.635 11.7906L81.1823 21.8777L77.6524 6.74583L71.0952 9.26823L65.5479 0.188595Z" fill="url(#paint4_linear_944_2418)"/>
<path id="&#229;&#189;&#162;&#231;&#138;&#182;_8" fill-rule="evenodd" clip-rule="evenodd" d="M147.757 40.0345L170.454 28.9375L161.879 20.3628L172.974 8.26076L153.809 20.3628L160.367 27.93L147.757 40.0345Z" fill="url(#paint5_linear_944_2418)"/>
</g>
</g>
</g>
</g>
</g>
<defs>
<linearGradient id="paint0_linear_944_2418" x1="110.903" y1="86.9959" x2="110.903" y2="126.107" gradientUnits="userSpaceOnUse">
<stop stop-color="#484747" stop-opacity="0.15"/>
<stop offset="1" stop-color="#8D8D8D" stop-opacity="0"/>
</linearGradient>
<linearGradient id="paint1_linear_944_2418" x1="121.531" y1="87.4389" x2="170.957" y2="87.4389" gradientUnits="userSpaceOnUse">
<stop stop-color="#3D3D3E"/>
<stop offset="0.822917" stop-color="#434344"/>
</linearGradient>
<linearGradient id="paint2_linear_944_2418" x1="96.5" y1="110" x2="157" y2="130" gradientUnits="userSpaceOnUse">
<stop stop-color="#434344"/>
<stop offset="1" stop-color="#333334"/>
</linearGradient>
<linearGradient id="paint3_linear_944_2418" x1="44.3635" y1="80.883" x2="109.427" y2="80.883" gradientUnits="userSpaceOnUse">
<stop stop-color="#3D3D3E"/>
<stop offset="0.822917" stop-color="#434344"/>
</linearGradient>
<linearGradient id="paint4_linear_944_2418" x1="73.3648" y1="21.8759" x2="73.3648" y2="0.18944" gradientUnits="userSpaceOnUse">
<stop stop-color="#2D2D2F"/>
<stop offset="1" stop-color="#2D2D2F"/>
</linearGradient>
<linearGradient id="paint5_linear_944_2418" x1="160.365" y1="40.0318" x2="160.365" y2="8.262" gradientUnits="userSpaceOnUse">
<stop stop-color="#2D2D2F"/>
<stop offset="1" stop-color="#2D2D2F"/>
</linearGradient>
</defs>
</svg>
