<svg width="220" height="170" viewBox="0 0 220 170" fill="none" xmlns="http://www.w3.org/2000/svg">
<g id="Group 3087">
<g id="Group">
<g id="Group_2">
<path id="&#232;&#131;&#140;&#230;&#153;&#175;" d="M220 125.975L219.626 129.154L218.59 132.25L216.86 135.308L214.393 138.336L211.467 141.098L207.932 143.806L203.724 146.462L198.78 149.072L193.696 151.356L188.057 153.526L181.831 155.598L174.964 157.54L165.726 159.703L155.677 161.562L144.773 163.094L133.762 164.172L122.185 164.847L110 165.082L97.8146 164.847L86.2379 164.172L75.2272 163.094L64.3233 161.562L54.2738 159.703L45.0359 157.54L38.1689 155.598L31.9427 153.526L26.3039 151.356L21.2204 149.072L16.2757 146.462L12.068 143.806L8.53301 141.098L5.6068 138.336L3.13981 135.308L1.40971 132.25L0.373786 129.154L0 125.975L0.373786 122.788L1.40971 119.692L3.13981 116.642L5.6068 113.607L8.53301 110.845L12.068 108.136L16.2757 105.481L21.2204 102.87L26.3039 100.594L31.9427 98.4164L38.1689 96.3525L45.0359 94.4025L54.2738 92.24L64.3233 90.3809L75.2272 88.8558L86.2379 87.7708L97.8146 87.103L110 86.8602L122.185 87.103L133.762 87.7708L144.773 88.8558L155.677 90.3809L165.726 92.24L174.964 94.4025L181.831 96.3525L188.057 98.4164L193.696 100.594L198.78 102.87L203.724 105.481L207.932 108.136L211.467 110.845L214.393 113.607L216.86 116.642L218.59 119.692L219.626 122.788L220 125.975Z" fill="url(#paint0_linear_944_2394)"/>
</g>
<g id="Group_3">
<g id="Clip path group">
<mask id="mask0_944_2394" style="mask-type:luminance" maskUnits="userSpaceOnUse" x="18" y="0" width="185" height="169">
<g id="clip-path">
<path id="Vector" d="M18 -7.62939e-06H202.39V168.585H18V-7.62939e-06Z" fill="white"/>
</g>
</mask>
<g mask="url(#mask0_944_2394)">
<g id="Group_4">
<path id="Vector_2" d="M128.361 8.59609V9.5795L128.326 10.1239L128.045 10.598L127.58 10.8878L127.035 10.9405H90.7191L90.1571 10.879L89.6479 10.5893L88.8488 9.5795V8.59609L89.2615 8.1834L89.4371 7.42828L89.9727 6.75218L90.684 5.9795L91.9922 4.97853L93.6342 4.18828L96.1015 3.60877L97.8664 3.49462L100.105 3.65267L102.906 4.16194L103.82 2.91511L104.882 1.90536L106.12 1.11511L108.175 0.324868L110.396 0.00876999L112.653 0.166819L114.813 0.807794L116.156 1.50145L117.35 2.38828L118.422 3.5034L119.44 3.36292L120.476 3.32779L121.934 3.4595L123.435 3.83706L125.086 4.59218L126.605 5.75121L128.08 7.55999L128.379 8.03414L128.361 8.59609Z" fill="#2D2D2F"/>
<path id="Vector_3" d="M198.096 55.721V56.4322L198.017 56.8273L197.797 57.1698L197.455 57.398L197.06 57.4771H173.256L174.906 54.7551L176.698 52.1034L178.217 52.2527L179.718 52.5512L180.622 51.3922L181.711 50.5317L182.993 49.9434L184.389 49.6273L185.794 49.5746L187.243 49.8029L188.604 50.2946L189.798 51.0498L190.852 52.0771L192.213 51.9454L193.512 52.0683L194.768 52.4546L195.927 53.078L196.919 53.9122L197.78 54.9834L198.017 55.3171L198.096 55.721Z" fill="#2D2D2F"/>
<path id="Vector_4" d="M165.783 103.487L162.824 107.482L159.655 111.135L156.265 114.454L152.657 117.457L148.811 120.179L144.824 122.558L140.706 124.613L136.422 126.342L132.022 127.747L127.562 128.801L123.04 129.521L118.439 129.89L113.821 129.916L109.228 129.582L104.636 128.889L100.044 127.826L95.5659 126.421L91.1757 124.639L86.8557 122.47L82.5971 119.898L78.5757 116.974L74.8966 113.839L71.5425 110.485L68.5044 106.902L65.7474 103.083L63.324 99.1229L61.2342 95.0137L59.4605 90.7551L58.0205 86.3649L56.9142 81.9219L56.1591 77.4L55.7376 72.799L55.6761 68.1893L55.9659 63.5883L56.6157 58.9961L57.6254 54.3863L58.9952 49.8995L60.7337 45.4917L62.8674 41.1454L65.3961 36.8693" fill="url(#paint1_linear_944_2394)"/>
<path id="Vector_5" opacity="0.2" d="M69.5756 66.161L68.5922 67.0917L67.4596 67.7063L66.1513 68.0312L64.7991 67.9961L63.561 67.6361L62.402 66.9336L62.6303 63.6761L63.3064 60.5414L64.4391 57.4771L65.5103 57.4244L66.5639 57.758L68.5659 59.0312L69.5493 60.0234L70.1991 61.1297L70.5415 62.3854L70.5591 63.6936L70.243 64.9405L69.5756 66.161Z" fill="#4A4A4A"/>
<path id="Vector_6" opacity="0.2" d="M114.909 116.377L116.103 117.966L116.815 119.722L117.043 121.601L116.788 123.48L116.06 125.254L114.839 126.852L113.232 128.081L111.467 128.801L109.58 129.056L107.709 128.827L105.944 128.125L104.364 126.922L103.161 125.333L102.459 123.577L102.23 121.698L102.476 119.819L103.205 118.045L104.434 116.447L106.032 115.226L107.806 114.498L109.685 114.243L111.564 114.471L113.32 115.174L114.909 116.377Z" fill="url(#paint2_linear_944_2394)"/>
<path id="Vector_7" d="M128.563 50.0839L135.403 54.8693L141.558 59.681L147.072 64.519L152.305 69.6819L156.669 74.5902L160.243 79.2615L162.71 83.0458L164.598 86.5141L165.959 89.6927L166.872 92.6166L167.382 95.7249L167.338 98.4117L166.784 100.782L165.757 102.89L164.221 104.672L162.262 106.103L159.804 107.21L156.748 107.965L153.702 108.281L150.242 108.272L146.317 107.912L141.865 107.14L136.167 105.691L129.933 103.619L123.119 100.844L116.507 97.6741L109.659 93.9073L102.564 89.5083L95.7239 84.7229L89.5688 79.9112L84.0459 75.0732L78.8127 69.9102L74.4576 65.0019L70.8839 60.3307L68.4079 56.5463L66.5288 53.078L65.1679 49.8995L64.2547 46.9756L63.7366 43.8673L63.7893 41.1805L64.3425 38.8097L65.3698 36.7024L66.9064 34.92L68.8644 33.4888L71.3142 32.3736L74.3786 31.6273L77.4166 31.3112H80.8761L84.8098 31.68L89.2615 32.4527L94.96 33.9015L101.194 35.9737L107.999 38.7483L114.62 41.918L121.46 45.6761L128.563 50.0839Z" fill="url(#paint3_linear_944_2394)"/>
<path id="Vector_8" opacity="0.2" d="M93.2478 82.9405L92.6332 84.8371L91.3952 87.0322L89.762 88.8322L87.7864 90.237L85.5561 91.1766L83.1679 91.6156L80.6478 91.519L78.2244 90.8517L76.0732 89.719L74.2293 88.1473L72.7718 86.2156L71.7532 84.0117L71.2352 81.5444L71.2791 79.0244L71.8498 76.6624L72.921 74.4936L74.4313 72.5971L76.3191 71.0692L78.5844 69.9629" fill="url(#paint4_linear_944_2394)"/>
<path id="Vector_9" opacity="0.2" d="M78.3649 69.9717L80.7181 70.0068L83.0186 70.3932L85.2313 71.1219L87.3298 72.1844L89.2352 73.6771L90.7454 75.319L91.9044 77.1278L92.7474 79.1034L93.1864 81.0351L93.2479 82.9493" fill="url(#paint5_linear_944_2394)"/>
<path id="Vector_10" d="M113.074 65.52L117.157 62.0429L153.526 97.9112L150.102 101.081L113.074 65.52Z" fill="url(#paint6_linear_944_2394)"/>
<path id="Vector_11" d="M120.257 71.7015L113.136 65.2039L134.226 45.7727L137.677 48.9073L120.257 71.7015Z" fill="url(#paint7_linear_944_2394)"/>
<path id="Vector_12" d="M145.694 43.121C145.694 46.3961 143.042 49.0478 139.767 49.0478C136.492 49.0478 133.84 46.3961 133.84 43.121C133.84 39.8458 136.492 37.1941 139.767 37.1941C143.042 37.1941 145.694 39.8458 145.694 43.121Z" fill="url(#paint8_linear_944_2394)"/>
<path id="Vector_13" d="M152.902 46.1854L151.954 45.9132L152.305 43.9288L152.235 41.9268L151.743 39.8634L150.874 37.9229L149.636 36.0702L147.977 34.2878L146.062 32.8039L144.14 31.7678L142.182 31.118L140.153 30.8458L138.213 30.9776L136.325 31.5044L135.956 30.6263L138.037 30.0468L140.171 29.9063L142.392 30.2136L144.543 30.9249L146.616 32.0312L148.644 33.5941L150.4 35.4732L151.726 37.4576L152.674 39.5824L153.219 41.8302L153.289 44.0078L152.902 46.1854Z" fill="url(#paint9_linear_944_2394)"/>
<path id="Vector_14" d="M159.857 45.439L158.891 45.2195L159.251 42.4712L159.119 39.7493L158.487 37.0185L157.398 34.4283L155.862 31.9785L153.833 29.6517L151.234 27.5005L148.46 25.8673L145.501 24.7171L142.392 24.0761L139.328 23.9971L136.272 24.4624L136.035 23.4966L138.459 23.0751L140.873 22.9785L143.305 23.2068L145.764 23.76L148.89 24.9717L151.796 26.6839L154.536 28.9493L156.669 31.399L158.294 33.9893L159.444 36.7463L160.12 39.6351L160.252 42.5239L159.857 45.439Z" fill="url(#paint10_linear_944_2394)"/>
<path id="Vector_15" d="M167.487 45.6058L166.486 45.5005L166.653 42.0585L166.495 39.038L166.047 36.3863L165.318 33.7873L164.431 31.5307L163.404 29.5814L161.586 26.921L159.804 24.9015L157.433 22.8468L154.922 21.0995L152.262 19.6507L149.425 18.4917L146.493 17.6488L143.499 17.1307L140.452 16.9463L137.317 17.0868L137.229 16.1034L140.478 15.9629L143.639 16.1561L146.739 16.7005L149.785 17.5873L152.718 18.7902L155.475 20.2917L158.074 22.1093L160.524 24.2429L162.377 26.3327L164.273 29.0897L165.336 31.118L166.266 33.4536L167.03 36.1493L167.496 38.8975L167.662 42.0322L167.487 45.6058Z" fill="url(#paint11_linear_944_2394)"/>
</g>
</g>
</g>
</g>
</g>
</g>
<defs>
<linearGradient id="paint0_linear_944_2394" x1="110.903" y1="86.9959" x2="110.903" y2="126.107" gradientUnits="userSpaceOnUse">
<stop stop-color="#484747" stop-opacity="0.15"/>
<stop offset="1" stop-color="#8D8D8D" stop-opacity="0"/>
</linearGradient>
<linearGradient id="paint1_linear_944_2394" x1="87.5318" y1="135.255" x2="115.524" y2="90.6146" gradientUnits="userSpaceOnUse">
<stop stop-color="#2F2F30"/>
<stop offset="0.99" stop-color="#474748"/>
</linearGradient>
<linearGradient id="paint2_linear_944_2394" x1="115.815" y1="131.773" x2="112.005" y2="145.996" gradientUnits="userSpaceOnUse">
<stop stop-color="#484848"/>
<stop offset="0.99" stop-color="#F2F2F2"/>
</linearGradient>
<linearGradient id="paint3_linear_944_2394" x1="145.862" y1="115.001" x2="112.735" y2="82.164" gradientUnits="userSpaceOnUse">
<stop stop-color="#393A3B"/>
<stop offset="0.99" stop-color="#333334"/>
</linearGradient>
<linearGradient id="paint4_linear_944_2394" x1="77.4869" y1="88.7092" x2="88.6557" y2="108.061" gradientUnits="userSpaceOnUse">
<stop stop-color="#474747"/>
<stop offset="0.99" stop-color="#565656"/>
</linearGradient>
<linearGradient id="paint5_linear_944_2394" x1="83.8966" y1="85.0829" x2="93.2391" y2="101.265" gradientUnits="userSpaceOnUse">
<stop stop-color="#404040"/>
<stop offset="0.99" stop-color="#565656"/>
</linearGradient>
<linearGradient id="paint6_linear_944_2394" x1="120.67" y1="58.7478" x2="146.708" y2="101.826" gradientUnits="userSpaceOnUse">
<stop stop-color="#444444"/>
<stop offset="0.99" stop-color="#585858" stop-opacity="0.3"/>
</linearGradient>
<linearGradient id="paint7_linear_944_2394" x1="123.019" y1="53.4106" x2="130.091" y2="59.9381" gradientUnits="userSpaceOnUse">
<stop stop-color="#414141"/>
<stop offset="0.99" stop-color="#474747"/>
</linearGradient>
<linearGradient id="paint8_linear_944_2394" x1="135.373" y1="39.1412" x2="144.132" y2="47.1281" gradientUnits="userSpaceOnUse">
<stop stop-color="#565656"/>
<stop offset="0.99" stop-color="#525252"/>
</linearGradient>
<linearGradient id="paint9_linear_944_2394" x1="144.259" y1="48.1962" x2="149.356" y2="43.4512" gradientUnits="userSpaceOnUse">
<stop stop-color="#343333"/>
<stop offset="0.99" stop-color="#373737"/>
</linearGradient>
<linearGradient id="paint10_linear_944_2394" x1="147.635" y1="48.2134" x2="154.673" y2="41.5784" gradientUnits="userSpaceOnUse">
<stop stop-color="#343333"/>
<stop offset="0.99" stop-color="#373737"/>
</linearGradient>
<linearGradient id="paint11_linear_944_2394" x1="151.807" y1="49.2674" x2="161.058" y2="40.9632" gradientUnits="userSpaceOnUse">
<stop stop-color="#343333"/>
<stop offset="0.99" stop-color="#373737"/>
</linearGradient>
</defs>
</svg>
