<svg width="21" height="20" viewBox="0 0 21 20" fill="none" xmlns="http://www.w3.org/2000/svg">
<g id="Frame">
<path id="Union" fill-rule="evenodd" clip-rule="evenodd" d="M2.0625 17.875H18.9375C19.2525 17.875 19.5 18.1225 19.5 18.4375C19.5 18.7525 19.2525 19 18.9375 19H2.0625C1.7475 19 1.5 18.7525 1.5 18.4375C1.5 18.1225 1.7475 17.875 2.0625 17.875ZM3.5475 1H17.4525C18.5775 1 19.5 1.9225 19.5 3.0475V13.5775C19.5 14.7025 18.5775 15.625 17.4525 15.625H3.5475C2.4225 15.625 1.5 14.7025 1.5 13.5775V3.0475C1.5 1.9225 2.4225 1 3.5475 1ZM17.4525 14.5C17.9587 14.5 18.375 14.0838 18.375 13.5775V3.0475C18.375 2.54125 17.9587 2.125 17.4525 2.125H3.5475C3.04125 2.125 2.625 2.54125 2.625 3.0475V13.5775C2.625 14.0838 3.04125 14.5 3.5475 14.5H17.4525ZM6.5625 4.9375H7.83375C7.96281 4.93973 8.08737 4.98533 8.18737 5.06696C8.28737 5.14859 8.35698 5.26149 8.385 5.3875L9.51 11.0125C9.53686 11.1584 9.50617 11.309 9.42437 11.4328C9.34256 11.5565 9.216 11.6438 9.07125 11.6763C9.0375 11.6875 8.9925 11.6875 8.95875 11.6875C8.7 11.6875 8.46375 11.5075 8.4075 11.2375L8.2725 10.5625H6.12375L5.98875 11.2375C5.97399 11.3099 5.94511 11.3787 5.90376 11.4399C5.86241 11.5011 5.80941 11.5536 5.74777 11.5944C5.68613 11.6351 5.61707 11.6633 5.54453 11.6774C5.47199 11.6914 5.39739 11.691 5.325 11.6763C5.02125 11.62 4.81875 11.3162 4.88625 11.0125L6.01125 5.3875C6.0675 5.12875 6.2925 4.9375 6.5625 4.9375ZM7.02375 6.0625L6.34875 9.4375H8.03625L7.36125 6.0625H7.02375ZM11.1975 4.9375H12.75C14.6062 4.9375 16.125 6.45625 16.125 8.3125C16.125 10.1688 14.6062 11.6875 12.75 11.6875H11.1975C10.8825 11.6875 10.635 11.44 10.635 11.125V5.5C10.635 5.185 10.8825 4.9375 11.1975 4.9375ZM11.7712 10.5625H12.75C13.9875 10.5625 15 9.55 15 8.3125C15 7.075 13.9875 6.0625 12.75 6.0625H11.7712V10.5625Z" fill="#AAAAAA"/>
</g>
</svg>
