<svg width="28" height="28" viewBox="0 0 28 28" fill="none" xmlns="http://www.w3.org/2000/svg">
<g id="Group 249">
<g id="Group 259">
<path id="bg" d="M27.125 14C27.125 21.245 21.2516 27.125 14 27.125C6.74844 27.125 0.875 21.245 0.875 14C0.875 6.74844 6.74844 0.875 14 0.875C21.2516 0.875 27.125 6.74844 27.125 14Z" fill="white"/>
<path id="apple" d="M22.2026 9.88423C22.1071 9.93994 19.8338 11.1156 19.8338 13.7223C19.941 16.6951 22.7026 17.7377 22.75 17.7377C22.7026 17.7934 22.3331 19.1579 21.2383 20.5882C20.3696 21.8203 19.4053 23.0625 17.941 23.0625C16.5481 23.0625 16.0481 22.2413 14.441 22.2413C12.715 22.2413 12.2267 23.0625 10.9052 23.0625C9.44096 23.0625 8.40524 21.7537 7.48909 20.5332C6.29887 18.9357 5.28722 16.4289 5.25151 14.0218C5.22744 12.7463 5.48986 11.4925 6.15601 10.4276C7.09623 8.94081 8.77481 7.93155 10.6079 7.89827C12.0124 7.85414 13.2624 8.79684 14.1195 8.79684C14.941 8.79684 16.4767 7.89827 18.2143 7.89827C18.9643 7.89899 20.9643 8.10953 22.2026 9.88423ZM14.0008 7.6436C13.7508 6.47879 14.441 5.31398 15.0838 4.57097C15.9053 3.6724 17.2026 3.0625 18.3214 3.0625C18.3928 4.22731 17.9402 5.36969 17.1312 6.2017C16.4053 7.10027 15.1553 7.77672 14.0008 7.6436Z" fill="black"/>
</g>
</g>
</svg>
