<svg width="28" height="28" viewBox="0 0 28 28" fill="none" xmlns="http://www.w3.org/2000/svg">
<g id="Frame">
<g id="Group 9795">
<path id="Vector" d="M8.18218 13.9999C8.18218 13.368 8.28999 12.7618 8.48072 12.1938L5.13209 9.68933C4.45929 11.0265 4.10991 12.503 4.11207 13.9999C4.11207 15.549 4.47861 17.0102 5.13043 18.3072L8.4774 15.7986C8.28225 15.219 8.18254 14.6115 8.18218 13.9999Z" fill="#FBBC05"/>
<path id="Vector_2" d="M14.0634 8.25057C15.4649 8.25057 16.7312 8.73653 17.7264 9.53264L20.6214 6.7023C18.8575 5.19882 16.5961 4.27002 14.0634 4.27002C10.131 4.27002 6.75084 6.47176 5.13208 9.68937L8.48237 12.1938C9.25361 9.90001 11.4529 8.25057 14.0634 8.25057Z" fill="#EA4335"/>
<path id="Vector_3" d="M14.0634 19.7494C11.452 19.7494 9.25278 18.0999 8.48072 15.8062L5.13208 18.3106C6.75001 21.5282 10.1302 23.7299 14.0634 23.7299C16.4899 23.7299 18.8069 22.8866 20.5468 21.3051L17.3673 18.8985C16.4708 19.4517 15.3414 19.7494 14.0626 19.7494" fill="#34A853"/>
<path id="Vector_4" d="M23.5622 13.9999C23.5622 13.4252 23.4709 12.8058 23.3358 12.2311H14.0627V15.9902H19.4C19.1338 17.2723 18.4073 18.2575 17.3683 18.8985L20.5469 21.3051C22.3738 19.6449 23.5622 17.1719 23.5622 13.9999Z" fill="#4285F4"/>
</g>
</g>
</svg>
