<?xml version="1.0" standalone="no"?><!DOCTYPE svg PUBLIC "-//W3C//DTD SVG 1.1//EN" "http://www.w3.org/Graphics/SVG/1.1/DTD/svg11.dtd"><svg class="icon" width="200px" height="200.00px" viewBox="0 0 1024 1024" version="1.1" xmlns="http://www.w3.org/2000/svg"><path d="M453.632 511.018667a34.133333 34.133333 0 0 1-58.922667 33.706666l-1.28 0.768a126.293333 126.293333 0 0 1 23.168-132.181333l266.282667-299.306667 0.213333-0.213333a137.941333 137.941333 0 0 1 93.226667-45.610667 140.544 140.544 0 0 1 99.968 30.634667c57.728 46.677333 64.810667 129.365333 15.701333 184.576l-133.12 149.717333a35.456 35.456 0 0 1-48.256 3.712 31.701333 31.701333 0 0 1-3.882666-46.208l133.162666-149.930666a63.402667 63.402667 0 0 0-7.978666-92.16 70.058667 70.058667 0 0 0-50.005334-15.36 68.992 68.992 0 0 0-46.592 22.826666l-0.128 0.128-266.282666 299.392c-14.08 15.872-18.901333 36.266667-14.933334 55.296l-0.341333 0.213334z" fill="#C1C1C1" /><path d="M587.178667 422.698667a35.498667 35.498667 0 0 0-48.384 3.498666l-0.085334 0.085334a31.616 31.616 0 0 0 3.797334 46.037333 64 64 0 0 1 23.68 44.672c1.408 17.408-4.693333 35.413333-16.298667 47.616l-267.989333 297.984c-24.618667 27.392-68.010667 30.592-96.810667 7.125333a64 64 0 0 1-23.68-44.714666c-1.408-17.322667 4.266667-34.133333 16.085333-47.402667l0.213334-0.213333 133.973333-148.992 0.128-0.085334a31.402667 31.402667 0 0 0 3.285333-37.973333 31.445333 31.445333 0 0 0-7.082666-8.021333 35.498667 35.498667 0 0 0-48.426667 3.498666l-133.973333 148.992a124.8 124.8 0 0 0-32.725334 95.189334c2.816 34.816 19.712 66.602667 47.530667 89.301333 57.386667 47.018667 144.213333 40.618667 193.493333-14.08l267.989334-298.026667c0.085333-0.085333 0.213333-0.298667 0.426666-0.426666a126.165333 126.165333 0 0 0 23.04-132.864c-7.850667-19.626667-20.864-37.12-38.186666-51.2z" fill="#C1C1C1" /></svg>