<svg width="21" height="20" viewBox="0 0 21 20" fill="none" xmlns="http://www.w3.org/2000/svg">
<g id="Frame">
<path id="Vector" d="M16.4001 7.15H14.9001V5.65C14.9001 3.22 12.9302 1.25 10.5001 1.25C8.07 1.25 6.1001 3.2199 6.1001 5.65V7.15H4.6001C3.4955 7.15 2.6001 8.0454 2.6001 9.15V16.75C2.6001 17.8546 3.4955 18.75 4.6001 18.75H16.4001C17.5047 18.75 18.4001 17.8546 18.4001 16.75V9.15C18.4001 8.0454 17.5047 7.15 16.4001 7.15ZM7.5001 5.65C7.5001 3.9958 8.8459 2.65 10.5001 2.65C12.1543 2.65 13.5001 3.9958 13.5001 5.65V7.15H7.5001V5.65ZM17.0001 16.75C17.0001 17.0808 16.731 17.35 16.4001 17.35H4.6001C4.2692 17.35 4.0001 17.0808 4.0001 16.75V9.15C4.0001 8.8192 4.2692 8.55 4.6001 8.55H16.4001C16.731 8.55 17.0001 8.8192 17.0001 9.15V16.75Z" fill="white"/>
<path id="Vector_2" d="M10.5 10.75C10.3144 10.75 10.1363 10.8237 10.0051 10.955C9.8738 11.0863 9.80005 11.2643 9.80005 11.45V14.85C9.80005 14.9419 9.81815 15.033 9.85333 15.1179C9.88851 15.2028 9.94007 15.28 10.0051 15.345C10.0701 15.41 10.1472 15.4615 10.2322 15.4967C10.3171 15.5319 10.4081 15.55 10.5 15.55C10.592 15.55 10.683 15.5319 10.7679 15.4967C10.8529 15.4615 10.93 15.41 10.995 15.345C11.06 15.28 11.1116 15.2028 11.1468 15.1179C11.1819 15.033 11.2 14.9419 11.2 14.85V11.45C11.2 11.2643 11.1263 11.0863 10.995 10.955C10.8637 10.8237 10.6857 10.75 10.5 10.75Z" fill="white"/>
</g>
</svg>
