<svg width="22" height="22" viewBox="0 0 22 22" fill="none" xmlns="http://www.w3.org/2000/svg">
<g id="Frame">
<path id="Union" d="M11.0001 2.86007C15.4885 2.86007 19.1401 6.51163 19.1401 11.0001C19.1401 15.4885 15.4885 19.1401 11.0001 19.1401C6.51163 19.1401 2.86007 15.4885 2.86007 11.0001C2.86007 6.51163 6.51163 2.86007 11.0001 2.86007ZM11.0001 1.32007C5.65396 1.32007 1.32007 5.65396 1.32007 11.0001C1.32007 16.3462 5.65396 20.6801 11.0001 20.6801C16.3462 20.6801 20.6801 16.3462 20.6801 11.0001C20.6801 5.65396 16.3462 1.32007 11.0001 1.32007Z" fill="#D5D5D5"/>
<path id="Vector" d="M11.1694 5.70605C10.0282 5.70605 9.13411 6.01194 8.47293 6.62253C7.79411 7.23429 7.47058 8.07664 7.47058 9.15194H9.22705C9.22705 8.54252 9.35058 8.06252 9.61293 7.72841C9.90588 7.32017 10.3835 7.13194 11.0612 7.13194C11.5859 7.13194 12.0023 7.26135 12.2941 7.539C12.5718 7.81547 12.7259 8.19311 12.7259 8.67311C12.7259 9.03664 12.5871 9.38605 12.3106 9.70605L12.1247 9.90958C11.1235 10.7531 10.5223 11.3637 10.3223 11.7566C10.1059 12.1496 10.0141 12.6296 10.0141 13.1813V13.3849H11.7859V13.1813C11.7859 12.8331 11.8635 12.5272 12.0176 12.2366C12.1697 11.9536 12.3797 11.7058 12.6341 11.5096L13.5223 10.7602C13.7435 10.5672 13.8894 10.4331 13.9588 10.3602C14.3294 9.89429 14.5294 9.299 14.5294 8.57194C14.5294 7.6837 14.2212 6.98605 13.6047 6.47782C12.9882 5.95311 12.1718 5.70605 11.1694 5.70605ZM10.8918 14.0978C11.2318 14.0978 11.5235 14.2002 11.7553 14.4037C11.8639 14.5032 11.9502 14.6246 12.0086 14.7598C12.067 14.8951 12.0961 15.0411 12.0941 15.1884C12.0971 15.3395 12.0669 15.4894 12.0057 15.6277C11.9445 15.7659 11.8538 15.889 11.74 15.9884C11.5082 16.1919 11.2318 16.2943 10.8929 16.2943C10.5529 16.2943 10.2753 16.1778 10.0447 15.9743C9.9332 15.8768 9.8449 15.7557 9.78627 15.6197C9.72765 15.4837 9.70018 15.3364 9.70588 15.1884C9.70588 14.8684 9.81293 14.6072 10.0447 14.4037C10.2753 14.2002 10.5529 14.0978 10.8918 14.0978Z" fill="#D5D5D5"/>
</g>
</svg>
