<svg width="22" height="22" viewBox="0 0 22 22" fill="none" xmlns="http://www.w3.org/2000/svg">
<g id="Frame">
<path id="Union" fill-rule="evenodd" clip-rule="evenodd" d="M17.7949 4.8303C17.9005 4.83903 18.0023 4.87396 18.0911 4.93192C18.1798 4.98989 18.2527 5.06906 18.3032 5.16228C18.3536 5.2555 18.38 5.35983 18.38 5.46583V9.43883C18.38 11.4573 17.594 13.355 16.1667 14.7823C14.8908 16.0582 13.2389 16.8211 11.4609 16.9687V20.3059C11.4609 20.6581 11.1754 20.9436 10.8233 20.9436C10.4711 20.9436 10.1856 20.6581 10.1856 20.3059V16.9687C8.4076 16.8211 6.7557 16.0582 5.47982 14.7823C4.05252 13.355 3.26648 11.4573 3.26648 9.43881V5.46581C3.26648 5.36168 3.29198 5.25913 3.34075 5.16713C3.38952 5.07513 3.46008 4.99647 3.54627 4.93803C3.63245 4.87958 3.73163 4.84313 3.83515 4.83186C3.93867 4.82059 4.04337 4.83484 4.14011 4.87337L7.38086 6.16398C7.55814 5.63019 7.83668 4.84137 8.17793 4.04452C9.09632 1.89995 9.91216 0.943604 10.8233 0.943604C11.7174 0.943604 12.5841 1.89023 13.6336 4.01295C14.0338 4.82261 14.3688 5.62399 14.5805 6.15711L17.4861 4.88188C17.5831 4.83929 17.6893 4.82156 17.7949 4.8303ZM10.8233 15.7202C14.2868 15.7202 17.1046 12.9024 17.1046 9.43881V6.44212L14.4807 7.59374C14.4008 7.62881 14.3145 7.6471 14.2272 7.64748C14.14 7.64786 14.0535 7.63032 13.9733 7.59593C13.893 7.56155 13.8207 7.51107 13.7608 7.4476C13.7009 7.38413 13.6546 7.30904 13.6249 7.22697C13.6203 7.21426 13.1537 5.93249 12.5249 4.64864C11.4532 2.46039 10.89 2.23918 10.8242 2.22032C10.761 2.24089 10.2254 2.47467 9.31276 4.63501C8.774 5.91033 8.39637 7.17826 8.39262 7.19092C8.36743 7.2759 8.32482 7.35469 8.26748 7.42228C8.21015 7.48987 8.13936 7.54476 8.05963 7.58347C7.97991 7.62219 7.89299 7.64386 7.80442 7.64709C7.71585 7.65032 7.62758 7.63505 7.54524 7.60225L4.54187 6.40619V9.43881C4.54187 12.9024 7.35968 15.7202 10.8233 15.7202ZM5.28205 16.8629C6.34618 17.6172 7.60077 18.0159 8.91014 18.0159C9.26233 18.0159 9.54783 18.3014 9.54783 18.6536C9.54783 19.0058 9.26235 19.2913 8.91014 19.2913C7.33503 19.2913 5.82541 18.8114 4.54446 17.9033C4.25713 17.6997 4.18935 17.3016 4.39301 17.0143C4.5967 16.727 4.99473 16.6592 5.28205 16.8629ZM12.7251 18.0159C14.0345 18.0159 15.2891 17.6172 16.3532 16.8629C16.6406 16.6592 17.0386 16.727 17.2422 17.0143C17.4459 17.3016 17.3781 17.6997 17.0908 17.9033C15.8098 18.8114 14.3002 19.2913 12.7251 19.2913C12.3729 19.2913 12.0874 19.0058 12.0874 18.6536C12.0874 18.3014 12.3729 18.0159 12.7251 18.0159Z" fill="#D5D5D5"/>
</g>
</svg>
