<svg width="22" height="22" viewBox="0 0 22 22" fill="none" xmlns="http://www.w3.org/2000/svg">
<g id="Frame">
<path id="Union" fill-rule="evenodd" clip-rule="evenodd" d="M7.01979 2.56665H14.9706H14.971C15.2293 2.56672 15.4831 2.63506 15.7066 2.76473C15.9301 2.89441 16.1154 3.08083 16.2437 3.30512L20.2282 10.2718C20.3551 10.4935 20.4218 10.7445 20.4218 11C20.4218 11.2554 20.3551 11.5064 20.2282 11.7282L16.2437 18.6949C16.1153 18.9192 15.93 19.1056 15.7065 19.2353C15.4829 19.365 15.229 19.4333 14.9706 19.4333H7.01979C6.76101 19.4334 6.50683 19.3649 6.28305 19.235C6.05926 19.105 5.87385 18.9182 5.74562 18.6934L1.77059 11.7267C1.6443 11.5053 1.57788 11.2549 1.57788 11C1.57788 10.7451 1.6443 10.4946 1.77059 10.2733L5.74562 3.30658C5.87385 3.08181 6.05926 2.89496 6.28305 2.765C6.50683 2.63505 6.76101 2.56661 7.01979 2.56665ZM14.9706 4.03332H7.01979L3.04439 11L7.01979 17.9667H14.9706L18.9552 11L14.9706 4.03332ZM9.7371 7.95118C10.1375 7.78534 10.5666 7.69999 11 7.69999C11.8752 7.69999 12.7145 8.04766 13.3334 8.66653C13.9523 9.2854 14.3 10.1248 14.3 11C14.3 11.8752 13.9523 12.7146 13.3334 13.3334C12.7145 13.9523 11.8752 14.3 11 14.3C10.5666 14.3 10.1375 14.2146 9.7371 14.0488C9.33672 13.8829 8.97293 13.6399 8.6665 13.3334C8.36007 13.027 8.11699 12.6632 7.95115 12.2628C7.78531 11.8625 7.69995 11.4333 7.69995 11C7.69995 10.5666 7.78531 10.1375 7.95115 9.73713C8.11699 9.33676 8.36007 8.97297 8.6665 8.66653C8.97293 8.3601 9.33672 8.11702 9.7371 7.95118ZM11.7015 9.30621C11.4791 9.21407 11.2407 9.16665 11 9.16665C10.5137 9.16665 10.0474 9.35981 9.70359 9.70362C9.35977 10.0474 9.16662 10.5138 9.16662 11C9.16662 11.4862 9.35977 11.9525 9.70359 12.2963C10.0474 12.6402 10.5137 12.8333 11 12.8333C11.2407 12.8333 11.4791 12.7859 11.7015 12.6938C11.924 12.6016 12.1261 12.4666 12.2963 12.2963C12.4666 12.1261 12.6016 11.924 12.6937 11.7016C12.7859 11.4791 12.8333 11.2407 12.8333 11C12.8333 10.7592 12.7859 10.5208 12.6937 10.2984C12.6016 10.076 12.4666 9.87386 12.2963 9.70362C12.1261 9.53338 11.924 9.39834 11.7015 9.30621Z" fill="#D5D5D5"/>
</g>
</svg>
