<svg width="14" height="14" viewBox="0 0 14 14" fill="none" xmlns="http://www.w3.org/2000/svg">
<g id="Frame" clip-path="url(#clip0_70_1927)">
<g id="Group 9795">
<path id="Vector" d="M2.92722 6.99994C2.92722 6.55544 3.00305 6.12902 3.13722 5.72944L0.781716 3.96777C0.308457 4.90838 0.0626938 5.94698 0.064216 6.99994C0.064216 8.08961 0.322049 9.11744 0.780549 10.0298L3.13488 8.26519C2.99761 7.85747 2.92747 7.43015 2.92722 6.99994Z" fill="#FBBC05"/>
<path id="Vector_2" d="M7.06424 2.95576C8.05007 2.95576 8.94082 3.2976 9.64082 3.8576L11.6772 1.86668C10.4365 0.809095 8.84574 0.155762 7.06424 0.155762C4.29807 0.155762 1.9204 1.70451 0.781738 3.96785L3.1384 5.72951C3.6809 4.11601 5.2279 2.95576 7.06424 2.95576Z" fill="#EA4335"/>
<path id="Vector_3" d="M7.06424 11.0443C5.22732 11.0443 3.68032 9.88401 3.13724 8.27051L0.781738 10.0322C1.91982 12.2955 4.29749 13.8443 7.06424 13.8443C8.77107 13.8443 10.4009 13.251 11.6247 12.1386L9.38824 10.4458C8.75765 10.8348 7.96316 11.0443 7.06366 11.0443" fill="#34A853"/>
<path id="Vector_4" d="M13.7458 6.99999C13.7458 6.59574 13.6816 6.15999 13.5866 5.75574H7.06372V8.39999H10.8181C10.6308 9.30182 10.1198 9.99482 9.38889 10.4457L11.6248 12.1386C12.9099 10.9707 13.7458 9.23124 13.7458 6.99999Z" fill="#4285F4"/>
</g>
</g>
<defs>
<clipPath id="clip0_70_1927">
<rect width="14" height="14" fill="white"/>
</clipPath>
</defs>
</svg>
