<svg width="22" height="22" viewBox="0 0 22 22" fill="none" xmlns="http://www.w3.org/2000/svg">
<g id="Frame">
<path id="Union" fill-rule="evenodd" clip-rule="evenodd" d="M4.04764 2.70142H17.9675C18.8797 2.70142 19.6226 3.44427 19.6226 4.35841V14.9431C19.6226 15.8553 18.8797 16.5982 17.9675 16.5982H6.19538L3.57422 19.204C3.44143 19.3367 3.26437 19.406 3.0854 19.406C2.99687 19.406 2.90642 19.3887 2.81982 19.3521C2.56001 19.2444 2.39258 18.9903 2.39258 18.7113L2.39643 15.0124C2.3945 14.9893 2.39258 14.9643 2.39258 14.9412V4.35648C2.39258 3.44427 3.13543 2.70142 4.04764 2.70142ZM17.9675 15.2106C18.1157 15.2106 18.2369 15.0894 18.2369 14.9412V4.35648C18.2369 4.20829 18.1157 4.08705 17.9675 4.08705H4.04572C3.89753 4.08705 3.77629 4.20829 3.77629 4.35648V14.87C3.77821 14.8931 3.78014 14.9162 3.78014 14.9412L3.77821 17.0427L5.42173 15.4108C5.56799 15.2664 5.76044 15.201 5.94904 15.2106H17.9675ZM6.4263 6.86795H15.5869C15.9679 6.86795 16.2778 7.17779 16.2778 7.56076C16.2778 7.94374 15.9679 8.25358 15.585 8.25358H6.4263C6.04333 8.25358 5.73348 7.94374 5.73348 7.56076C5.73348 7.17779 6.04333 6.86795 6.4263 6.86795ZM6.4263 11.0326H10.8757C11.2587 11.0326 11.5686 11.3424 11.5686 11.7254C11.5686 12.1083 11.2587 12.4182 10.8757 12.4182H6.4263C6.04333 12.4182 5.73348 12.1083 5.73348 11.7254C5.73348 11.3424 6.04333 11.0326 6.4263 11.0326Z" fill="#D5D5D5"/>
</g>
</svg>
