<svg width="22" height="22" viewBox="0 0 22 22" fill="none" xmlns="http://www.w3.org/2000/svg">
<g id="Frame">
<path id="Union" fill-rule="evenodd" clip-rule="evenodd" d="M4.03104 13.3876C3.61693 12.178 3.5249 10.8814 3.764 9.62545C4.51345 10.0116 5.27927 9.93636 6.47382 9.59518C7.74527 9.23109 8.08318 9.27773 8.69191 10.1532C9.236 10.9354 9.16482 11.2037 8.41536 12.0628L8.29591 12.2003C7.28955 13.3605 7.02855 14.2752 7.86227 15.5401C8.60764 16.6733 9.39636 16.8713 10.982 16.7755L10.9993 16.7745C11.1968 16.763 11.2903 16.7575 11.3993 16.7551C12.3189 16.7289 12.8123 16.9629 13.2647 18.0085C12.0483 18.4022 10.7503 18.4723 9.49859 18.212C8.24684 17.9517 7.08443 17.37 6.12575 16.5241C5.16707 15.6782 4.44515 14.5972 4.03104 13.3876ZM6.02382 8.02182C5.04527 8.30164 4.68036 8.32045 4.26964 8.00709H4.27045C4.74177 6.94882 5.45612 6.01668 6.35546 5.28643C7.2548 4.55618 8.31375 4.04843 9.44624 3.80443C9.95871 3.69402 10.4797 3.63903 11.0003 3.63926C11.0162 4.84298 11.7198 5.93816 13.0283 6.87473C15.1236 8.37609 15.3814 8.81545 14.9044 10.3111C14.1636 12.6336 15.3087 14.0005 17.613 14.2361C17.4932 14.4813 17.3595 14.7202 17.2124 14.9517C16.5912 15.9296 15.748 16.747 14.7514 17.3376C13.9954 15.6587 12.9186 15.0745 11.3526 15.1187C11.2176 15.1228 11.1105 15.1285 10.883 15.1425C9.83 15.2055 9.55509 15.1367 9.22945 14.6409C8.89564 14.1353 8.95127 13.943 9.53218 13.2721L9.64836 13.1387C10.8339 11.7797 11.1055 10.757 10.0354 9.21882C8.93164 7.63236 7.89173 7.48755 6.02382 8.02182ZM18.1718 12.6606C18.2439 12.3484 18.2958 12.0309 18.3267 11.7102C18.438 10.5571 18.2756 9.39398 17.8528 8.31541C17.43 7.23684 16.7587 6.27325 15.8934 5.50294C15.0282 4.73264 13.9933 4.17735 12.8731 3.88222C12.7961 3.86194 12.7188 3.84292 12.6414 3.82518C12.7315 4.4124 13.1562 4.98179 13.9757 5.56891C16.5743 7.42945 17.1879 8.47836 16.4491 10.7971C16.0295 12.1142 16.5048 12.6255 18.1718 12.6606ZM2 11C2 15.9705 6.02955 20 11 20C15.9705 20 20 15.9705 20 11C20 6.02955 15.9705 2 11 2C6.02955 2 2 6.02955 2 11Z" fill="#D5D5D5"/>
</g>
</svg>
