<svg width="28" height="28" viewBox="0 0 28 28" fill="none" xmlns="http://www.w3.org/2000/svg">
<g id="tiktok-icon-2 1">
<g id="Group 9799">
<g id="Group">
<path id="Vector" d="M11.7816 11.9545V11.0733C11.4757 11.0249 11.1668 10.9983 10.8571 10.9939C7.85914 10.9875 5.20494 12.9303 4.30465 15.7899C3.40435 18.6495 4.46705 21.7624 6.92784 23.4746C6.02546 22.5088 5.42189 21.3025 5.18999 20.0013C4.95808 18.7001 5.10775 17.3596 5.62093 16.1415C6.13411 14.9235 6.98887 13.88 8.08203 13.1371C9.17518 12.3941 10.46 11.9834 11.7814 11.9546L11.7816 11.9545Z" fill="#25F4EE"/>
<path id="Vector_2" d="M11.9479 21.9362C13.6241 21.9339 15.0019 20.6134 15.0753 18.9388V3.99527H17.8053C17.7496 3.68301 17.723 3.36625 17.7259 3.04907L13.9918 3.04907V17.9782C13.9297 19.6613 12.5486 20.9945 10.8644 20.9972C10.3611 20.993 9.86603 20.8692 9.41992 20.6361C9.70905 21.0367 10.0888 21.3633 10.5281 21.5892C10.9674 21.8151 11.4539 21.934 11.9479 21.9362ZM22.9045 9.06546V8.23486C21.8997 8.23526 20.9173 7.93878 20.0805 7.38266C20.814 8.23545 21.8054 8.82617 22.9045 9.06546Z" fill="#25F4EE"/>
</g>
<path id="Vector_3" d="M20.0804 7.38273C19.2561 6.44404 18.8016 5.23733 18.8021 3.98804H17.8053C17.934 4.67876 18.2021 5.336 18.5933 5.91965C18.9845 6.5033 19.4905 7.00112 20.0804 7.38273ZM10.8572 14.7281C10.1581 14.7317 9.48023 14.9688 8.93141 15.4019C8.38258 15.8349 7.99428 16.439 7.82823 17.1181C7.66218 17.7973 7.72792 18.5124 8.01499 19.1498C8.30207 19.7873 8.794 20.3104 9.41258 20.6362C9.07437 20.1692 8.87184 19.6178 8.82736 19.043C8.78287 18.4681 8.89817 17.8922 9.16051 17.3787C9.42285 16.8653 9.82202 16.4343 10.3139 16.1335C10.8058 15.8327 11.3713 15.6738 11.9479 15.6742C12.2613 15.6783 12.5726 15.7271 12.8723 15.8191V12.0196C12.5662 11.9737 12.2573 11.9496 11.9479 11.9474H11.7817V14.8364C11.4804 14.7556 11.169 14.7191 10.8572 14.7281Z" fill="#FE2C55"/>
<path id="Vector_4" d="M22.9043 9.06543V11.9545C21.0443 11.9509 19.2325 11.3621 17.7257 10.2716V17.8626C17.7177 21.6504 14.6448 24.7169 10.857 24.7169C9.45026 24.7194 8.07736 24.2854 6.92773 23.4746C7.86519 24.4829 9.08456 25.1855 10.427 25.491C11.7695 25.7964 13.1728 25.6905 14.4542 25.187C15.7357 24.6835 16.8357 23.8058 17.6112 22.6682C18.3867 21.5306 18.8016 20.1858 18.8019 18.809V11.2395C20.3138 12.3229 22.1277 12.9039 23.9877 12.9007V9.18073C23.6235 9.17964 23.2605 9.14101 22.9043 9.06543Z" fill="#FE2C55"/>
<path id="Vector_5" d="M17.7259 17.8627V10.2717C19.2373 11.356 21.0516 11.9372 22.9117 11.9329V9.04392C21.8128 8.81185 20.8191 8.22882 20.0805 7.38273C19.4906 7.00112 18.9846 6.5033 18.5934 5.91965C18.2022 5.336 17.9341 4.67876 17.8053 3.98804H15.0753V18.9391C15.0488 19.5899 14.8201 20.2162 14.4212 20.7311C14.0222 21.246 13.4728 21.6238 12.8493 21.812C12.2257 22.0002 11.559 21.9896 10.9418 21.7815C10.3246 21.5734 9.7876 21.1782 9.40535 20.6508C8.78667 20.3251 8.29463 19.8019 8.00748 19.1644C7.72033 18.5269 7.65456 17.8117 7.82062 17.1326C7.98668 16.4534 8.37504 15.8493 8.92394 15.4162C9.47284 14.9831 10.1508 14.746 10.8499 14.7425C11.1635 14.7453 11.475 14.794 11.7744 14.887V11.9979C10.4459 12.0204 9.15266 12.429 8.05234 13.1739C6.95201 13.9187 6.09217 14.9676 5.57765 16.1926C5.06313 17.4177 4.91617 18.7659 5.15467 20.0731C5.39317 21.3802 6.00685 22.5897 6.92086 23.5541C8.08178 24.3381 9.45663 24.7443 10.8572 24.717C14.645 24.717 17.7179 21.6505 17.7259 17.8627Z" fill="black"/>
</g>
</g>
</svg>
