<svg width="28" height="28" viewBox="0 0 28 28" fill="currentColor" xmlns="http://www.w3.org/2000/svg">
<g id="Group 5">
<path id="Union" fill-rule="evenodd" clip-rule="evenodd" d="M24.5123 10.7827C24.7691 10.6576 24.9827 10.4596 25.1272 10.212L25.1259 10.2132C25.2204 10.0501 25.2819 9.86993 25.3069 9.68297C25.332 9.49601 25.32 9.30594 25.2717 9.12362C25.2235 8.9413 25.1398 8.7703 25.0256 8.62039C24.9114 8.47048 24.7689 8.34461 24.6062 8.24995L16.4852 3.52123L16.0691 3.28603L15.7234 3.10035L15.4333 2.96047C15.3012 2.90105 15.1839 2.85277 15.0728 2.8144L14.8592 2.74879L14.6518 2.69927C14.1963 2.60024 13.7518 2.60024 13.295 2.69927L13.0864 2.74879L12.8728 2.8144C12.7629 2.85277 12.6456 2.89981 12.5123 2.96047L12.2222 3.10035L12.058 3.18576L11.679 3.3962L3.33945 8.24871C3.11438 8.3794 2.92905 8.56907 2.80335 8.79737C2.67766 9.02568 2.61634 9.284 2.62599 9.5446C2.63563 9.8052 2.71587 10.0583 2.8581 10.2766C3.00032 10.4949 3.19916 10.6703 3.43328 10.7839L11.7111 14.8107L12.1259 15.0088L12.4629 15.1586C12.5105 15.1793 12.5582 15.1995 12.6061 15.2192L12.8592 15.3133L12.9703 15.3505L13.1777 15.4074L13.3777 15.4495C13.7712 15.5255 14.1756 15.5255 14.5691 15.4495L14.7679 15.4074L14.9753 15.3505C15.0481 15.3269 15.1247 15.3009 15.2086 15.27L15.4839 15.1586L15.8197 15.0088L16.2345 14.8107L24.5123 10.7827ZM24.0358 13.8662C24.2472 13.7605 24.491 13.7398 24.7171 13.8084C24.9433 13.8769 25.1348 14.0296 25.2523 14.2351C25.3698 14.4406 25.4046 14.6834 25.3494 14.9138C25.2943 15.1441 25.1534 15.3446 24.9556 15.4742L24.8469 15.5361L15.5321 20.0804C15.1078 20.2874 14.6452 20.4034 14.1737 20.4211C13.7023 20.4388 13.2323 20.3577 12.7938 20.1831L12.5753 20.0878L3.26416 15.6005C3.05221 15.4988 2.88672 15.3202 2.80124 15.1007C2.71576 14.8813 2.71668 14.6375 2.8038 14.4187C2.89093 14.1999 3.05774 14.0225 3.27045 13.9225C3.48316 13.8224 3.72585 13.8072 3.94934 13.8798L4.06663 13.9269L13.3778 18.4142C13.7494 18.5937 14.1753 18.6147 14.5592 18.4786L14.7222 18.4105L24.0358 13.8675V13.8662ZM24.7171 18.7599C24.491 18.6914 24.2472 18.7121 24.0358 18.8178V18.819L14.7222 23.3621L14.5592 23.4302C14.1753 23.5663 13.7494 23.5453 13.3778 23.3658L4.06663 18.8785L3.94934 18.8314C3.72585 18.7587 3.48316 18.774 3.27045 18.874C3.05774 18.9741 2.89093 19.1515 2.8038 19.3703C2.71668 19.5891 2.71576 19.8329 2.80125 20.0523C2.88673 20.2718 3.05221 20.4504 3.26416 20.5521L12.5753 25.0394L12.7938 25.1347C13.2323 25.3093 13.7023 25.3903 14.1737 25.3727C14.6452 25.355 15.1078 25.2389 15.5321 25.032L24.8469 20.4877L24.9556 20.4258C25.1534 20.2962 25.2943 20.0957 25.3494 19.8654C25.4046 19.635 25.3698 19.3922 25.2523 19.1867C25.1348 18.9812 24.9433 18.8285 24.7171 18.7599Z" fill="currentColor"/>
</g>
</svg>
