<svg width="28" height="28" viewBox="0 0 28 28" fill="currentColor" xmlns="http://www.w3.org/2000/svg">
<g id="Group 7">
<path id="Vector" d="M25.1726 11.7736L17.0765 2.86788C16.7527 2.54404 16.2669 2.54404 15.943 2.86788C15.6192 3.19173 15.6192 3.35365 15.6192 3.67749V8.37322C8.98041 8.37322 2.66547 13.8786 2.66547 20.5173C2.66547 22.2985 3.47507 24.5654 4.28468 25.375C5.25621 20.3554 10.2758 16.4693 15.6192 16.4693C15.6192 16.9551 15.6192 21.327 15.6192 21.327C15.6192 21.4889 15.6192 21.6508 15.7811 21.9746C16.105 22.2985 16.7527 22.1366 16.9146 21.9746L25.0107 13.2309C25.3345 12.907 25.3345 12.5832 25.3345 12.4213C25.3345 12.2593 25.3345 11.9355 25.1726 11.7736Z" fill="currentColor"/>
</g>
</svg>
