<svg width="28" height="28" viewBox="0 0 28 28" fill="currentColor" xmlns="http://www.w3.org/2000/svg">
<g id="Group 6">
<path id="Vector" d="M25.2918 11.1921C25.0974 10.6031 24.5977 10.1748 23.9729 10.0811L22.0571 9.79997L18.1006 9.14405C17.8646 9.10389 17.6564 8.95664 17.5453 8.74246V8.72908C17.5314 8.67553 17.5314 8.63537 17.5036 8.58183L15.0325 3.54864C14.9631 3.4014 14.866 3.26753 14.7688 3.16045C14.4495 2.82579 14.033 2.625 13.5749 2.625C12.9502 2.625 12.3948 2.97304 12.1172 3.53526L9.34068 9.18421L3.14904 10.0945C2.52433 10.1882 2.02455 10.6031 1.8302 11.2055C1.63584 11.8079 1.80243 12.4504 2.24667 12.8788L6.73075 17.2694L5.67567 23.4672C5.56461 24.083 5.8145 24.6987 6.32816 25.0602C6.82793 25.435 7.49429 25.4751 8.03572 25.1806L13.5749 22.2491L19.114 25.1806C19.35 25.3145 19.6138 25.368 19.8637 25.368C20.1969 25.368 20.5301 25.261 20.8216 25.0468C21.3214 24.672 21.5712 24.0696 21.4741 23.4538L20.419 17.256L24.9031 12.8654C25.3334 12.437 25.4861 11.7945 25.2918 11.1921Z" fill="currentColor"/>
</g>
</svg>
