<svg width="28" height="28" viewBox="0 0 28 28" fill="currentColor" xmlns="http://www.w3.org/2000/svg">
<g id="Group 5">
<path id="Vector" d="M13.9399 7.78378C14.496 7.09287 15.0858 6.46936 15.7093 5.91326C16.2486 5.45827 16.8595 5.04541 17.5419 4.67467C18.2244 4.30394 18.9364 4.14385 19.6779 4.1944C20.7227 4.27866 21.5947 4.52722 22.2941 4.94008C22.9934 5.35295 23.5495 5.87534 23.9624 6.50728C24.3752 7.13921 24.6575 7.8554 24.8092 8.65585C24.9608 9.4563 25.0114 10.2778 24.9608 11.1204C24.9103 11.963 24.7628 12.7676 24.5185 13.5344C24.2741 14.3011 23.9708 15.0173 23.6085 15.6829C23.2462 16.3486 22.846 16.9637 22.4078 17.5282C21.9697 18.0927 21.5316 18.6025 21.0934 19.0575C20.4193 19.7484 19.7158 20.3929 18.9828 20.9912C18.2497 21.5894 17.5504 22.1034 16.8847 22.5331C16.2191 22.9628 15.6124 23.3041 15.0648 23.5568C14.5171 23.8096 14.0916 23.936 13.7883 23.936C13.4512 23.9528 13.0215 23.8349 12.4991 23.5821C11.9767 23.3293 11.4038 22.9881 10.7803 22.5584C10.1568 22.1287 9.49955 21.6189 8.80864 21.0291C8.11773 20.4393 7.43524 19.8158 6.76118 19.1586C6.32304 18.7373 5.85119 18.2486 5.34565 17.6925C4.8401 17.1364 4.36404 16.5255 3.91748 15.8599C3.47091 15.1942 3.08754 14.4738 2.76736 13.6987C2.44718 12.9235 2.27024 12.0978 2.23654 11.2215C2.20283 10.3452 2.29552 9.5237 2.51459 8.75696C2.73366 7.99021 3.06226 7.30351 3.5004 6.69686C3.93854 6.0902 4.47779 5.58044 5.11815 5.16758C5.75851 4.75472 6.48313 4.46403 7.292 4.29551C7.69644 4.21125 8.10087 4.19862 8.50531 4.2576C8.90975 4.31658 9.30576 4.41769 9.69334 4.56092C10.0809 4.70416 10.4517 4.88532 10.8055 5.10439C11.1594 5.32346 11.4965 5.55095 11.8166 5.78687C12.5581 6.34297 13.2659 7.00861 13.9399 7.78378Z" fill="currentColor"/>
</g>
</svg>
